<?xml version="1.0" encoding="iso-8859-1"?>
<!-- Generator: Adobe Illustrator 19.0.0, SVG Export Plug-In . SVG Version: 6.00 Build 0)  -->
<svg version="1.1" id="Layer_1" xmlns="http://www.w3.org/2000/svg" xmlns:xlink="http://www.w3.org/1999/xlink" x="0px" y="0px"
	 viewBox="0 0 512 512" style="enable-background:new 0 0 512 512;" xml:space="preserve">
<path style="fill:#81E5EE;" d="M449.707,485.436L434.191,376.83c-1.638-11.467-11.458-19.982-23.04-19.982h-54.879l-7.194-287.612
	c-0.189-7.573-4.053-14.578-10.356-18.781L268.907,3.91C265,1.303,260.499,0,256,0c-4.501,0-9.003,1.303-12.912,3.91l-69.814,46.545
	c-6.302,4.203-10.166,11.21-10.355,18.781l-7.193,287.612h-54.879c-11.582,0-21.402,8.515-23.04,19.982L62.293,485.436
	c-0.953,6.679,1.038,13.442,5.458,18.539C72.173,509.072,78.586,512,85.333,512H256h170.667c6.748,0,13.16-2.928,17.582-8.024
	C448.669,498.879,450.659,492.116,449.707,485.436z"/>
<path style="fill:#66B4BA;" d="M449.707,485.436L434.191,376.83c-1.638-11.467-11.458-19.982-23.04-19.982h-54.879h-23.279h-23.28
	H256h-53.713h-23.28h-23.279h-54.879c-11.582,0-21.402,8.515-23.04,19.982L62.293,485.436c-0.953,6.679,1.038,13.442,5.458,18.539
	C72.173,509.072,78.586,512,85.333,512H256h170.667c6.748,0,13.16-2.928,17.582-8.024
	C448.669,498.879,450.659,492.116,449.707,485.436z"/>
<path style="fill:#79D5DD;" d="M202.287,356.848H256V0c-4.501,0-9.003,1.303-12.912,3.91l-69.814,46.545
	c-6.302,4.203-10.166,11.21-10.355,18.781l-7.193,287.612h23.279H202.287z"/>
<path style="fill:#549498;" d="M202.287,356.848h-23.28h-23.279h-54.879c-11.582,0-21.402,8.515-23.04,19.982L62.293,485.436
	c-0.953,6.679,1.038,13.442,5.458,18.539C72.173,509.072,78.586,512,85.333,512H256V356.848H202.287z"/>
<g>
</g>
<g>
</g>
<g>
</g>
<g>
</g>
<g>
</g>
<g>
</g>
<g>
</g>
<g>
</g>
<g>
</g>
<g>
</g>
<g>
</g>
<g>
</g>
<g>
</g>
<g>
</g>
<g>
</g>
</svg>
